<svg width="279" height="54" viewBox="0 0 279 54" fill="none" xmlns="http://www.w3.org/2000/svg">
<path d="M72.052 48.698C71.828 48.922 71.52 49.146 71.128 49.37C70.7453 49.5847 70.302 49.7667 69.798 49.916C69.294 50.0653 68.7573 50.14 68.188 50.14C67.4787 50.14 66.816 50.0233 66.2 49.79C65.584 49.5473 65.0427 49.2067 64.576 48.768C64.1187 48.3293 63.7593 47.802 63.498 47.186C63.246 46.5607 63.12 45.8653 63.12 45.1C63.12 44.3813 63.2553 43.7187 63.526 43.112C63.7967 42.5053 64.17 41.978 64.646 41.53C65.1313 41.082 65.682 40.7367 66.298 40.494C66.914 40.242 67.5673 40.116 68.258 40.116C68.8367 40.116 69.378 40.2 69.882 40.368C70.3953 40.5267 70.848 40.732 71.24 40.984C71.6413 41.236 71.9587 41.502 72.192 41.782L71.226 42.93C70.8153 42.5473 70.358 42.2347 69.854 41.992C69.3593 41.74 68.8087 41.614 68.202 41.614C67.6047 41.614 67.0353 41.754 66.494 42.034C65.9527 42.314 65.5093 42.7153 65.164 43.238C64.828 43.7607 64.66 44.3813 64.66 45.1C64.66 45.884 64.8327 46.5373 65.178 47.06C65.5327 47.5827 65.99 47.9793 66.55 48.25C67.1193 48.5113 67.7307 48.642 68.384 48.642C69.0467 48.642 69.6207 48.516 70.106 48.264C70.5913 48.0027 70.9927 47.732 71.31 47.452L72.052 48.698ZM82.2693 50L81.2613 47.62H76.5013L75.4793 50H73.9253L78.1113 40.2H79.7493L83.9073 50H82.2693ZM78.1253 43.812L77.1173 46.164H80.6453L79.6093 43.756C79.4879 43.448 79.3666 43.1353 79.2453 42.818C79.1239 42.4913 79.0026 42.1553 78.8813 41.81C78.7506 42.1647 78.6246 42.51 78.5033 42.846C78.3819 43.182 78.2559 43.504 78.1253 43.812ZM94.7412 40.186V45.87C94.7412 46.682 94.5545 47.4053 94.1812 48.04C93.8172 48.6747 93.3085 49.174 92.6552 49.538C92.0019 49.902 91.2505 50.084 90.4012 50.084C89.5425 50.084 88.7865 49.902 88.1332 49.538C87.4892 49.174 86.9805 48.6747 86.6072 48.04C86.2432 47.4053 86.0612 46.682 86.0612 45.87V40.186H87.5732V45.772C87.5732 46.3227 87.6992 46.8127 87.9512 47.242C88.2125 47.6713 88.5579 48.012 88.9872 48.264C89.4165 48.5067 89.8879 48.628 90.4012 48.628C90.9332 48.628 91.4185 48.5067 91.8572 48.264C92.2959 48.012 92.6459 47.6713 92.9072 47.242C93.1685 46.8127 93.2992 46.3227 93.2992 45.772V40.186H94.7412ZM98.4447 47.018C98.8927 47.578 99.3641 48.012 99.8587 48.32C100.353 48.628 100.974 48.782 101.721 48.782C102.103 48.782 102.472 48.7307 102.827 48.628C103.181 48.516 103.471 48.3573 103.695 48.152C103.919 47.9373 104.031 47.6713 104.031 47.354C104.031 46.8873 103.797 46.5467 103.331 46.332C102.864 46.108 102.211 45.9307 101.371 45.8C100.316 45.6227 99.4761 45.31 98.8507 44.862C98.2347 44.4047 97.9267 43.7373 97.9267 42.86C97.9267 42.2813 98.0994 41.782 98.4447 41.362C98.7901 40.942 99.2474 40.62 99.8167 40.396C100.386 40.172 101.011 40.06 101.693 40.06C102.551 40.06 103.293 40.2093 103.919 40.508C104.553 40.8067 105.048 41.2313 105.403 41.782L104.367 42.86C104.068 42.4307 103.69 42.0853 103.233 41.824C102.785 41.5533 102.257 41.418 101.651 41.418C101.044 41.418 100.531 41.5393 100.111 41.782C99.7001 42.0153 99.4947 42.3467 99.4947 42.776C99.4947 43.2707 99.7141 43.6253 100.153 43.84C100.591 44.0547 101.175 44.2227 101.903 44.344C102.379 44.4187 102.836 44.5213 103.275 44.652C103.713 44.7827 104.105 44.9553 104.451 45.17C104.805 45.3753 105.085 45.632 105.291 45.94C105.496 46.2387 105.599 46.6073 105.599 47.046C105.599 47.6713 105.435 48.2173 105.109 48.684C104.791 49.1413 104.334 49.5007 103.737 49.762C103.139 50.014 102.435 50.14 101.623 50.14C100.764 50.14 99.9847 49.9907 99.2847 49.692C98.5847 49.3933 97.9687 48.908 97.4367 48.236L98.4447 47.018ZM115.847 50L114.839 47.62H110.079L109.057 50H107.503L111.689 40.2H113.327L117.485 50H115.847ZM111.703 43.812L110.695 46.164H114.223L113.187 43.756C113.066 43.448 112.945 43.1353 112.823 42.818C112.702 42.4913 112.581 42.1553 112.459 41.81C112.329 42.1647 112.203 42.51 112.081 42.846C111.96 43.182 111.834 43.504 111.703 43.812ZM129.731 40.2C130.795 40.2 131.598 40.41 132.139 40.83C132.68 41.25 132.951 41.8613 132.951 42.664C132.951 43.1027 132.834 43.4993 132.601 43.854C132.368 44.1993 132.027 44.4653 131.579 44.652C131.915 44.764 132.223 44.9227 132.503 45.128C132.792 45.3333 133.026 45.5993 133.203 45.926C133.38 46.2527 133.469 46.6493 133.469 47.116C133.469 47.6853 133.362 48.1567 133.147 48.53C132.942 48.9033 132.666 49.1973 132.321 49.412C131.976 49.6267 131.598 49.7807 131.187 49.874C130.776 49.958 130.366 50 129.955 50H125.139V40.2H129.731ZM129.619 41.656H126.651V44.232H129.787C130.216 44.2227 130.594 44.106 130.921 43.882C131.248 43.658 131.411 43.3407 131.411 42.93C131.411 42.4727 131.238 42.146 130.893 41.95C130.548 41.754 130.123 41.656 129.619 41.656ZM129.857 45.688H126.651V48.544H129.927C130.515 48.544 130.996 48.4273 131.369 48.194C131.742 47.9513 131.929 47.5827 131.929 47.088C131.929 46.7333 131.822 46.4533 131.607 46.248C131.392 46.0427 131.126 45.898 130.809 45.814C130.492 45.73 130.174 45.688 129.857 45.688ZM143.656 50L142.648 47.62H137.888L136.866 50H135.312L139.498 40.2H141.136L145.294 50H143.656ZM139.512 43.812L138.504 46.164H142.032L140.996 43.756C140.875 43.448 140.753 43.1353 140.632 42.818C140.511 42.4913 140.389 42.1553 140.268 41.81C140.137 42.1647 140.011 42.51 139.89 42.846C139.769 43.182 139.643 43.504 139.512 43.812ZM140.1 39.472L139.624 38.758L141.626 37.008L142.536 38.156L140.1 39.472ZM148.169 47.018C148.617 47.578 149.089 48.012 149.583 48.32C150.078 48.628 150.699 48.782 151.445 48.782C151.828 48.782 152.197 48.7307 152.551 48.628C152.906 48.516 153.195 48.3573 153.419 48.152C153.643 47.9373 153.755 47.6713 153.755 47.354C153.755 46.8873 153.522 46.5467 153.055 46.332C152.589 46.108 151.935 45.9307 151.095 45.8C150.041 45.6227 149.201 45.31 148.575 44.862C147.959 44.4047 147.651 43.7373 147.651 42.86C147.651 42.2813 147.824 41.782 148.169 41.362C148.515 40.942 148.972 40.62 149.541 40.396C150.111 40.172 150.736 40.06 151.417 40.06C152.276 40.06 153.018 40.2093 153.643 40.508C154.278 40.8067 154.773 41.2313 155.127 41.782L154.091 42.86C153.793 42.4307 153.415 42.0853 152.957 41.824C152.509 41.5533 151.982 41.418 151.375 41.418C150.769 41.418 150.255 41.5393 149.835 41.782C149.425 42.0153 149.219 42.3467 149.219 42.776C149.219 43.2707 149.439 43.6253 149.877 43.84C150.316 44.0547 150.899 44.2227 151.627 44.344C152.103 44.4187 152.561 44.5213 152.999 44.652C153.438 44.7827 153.83 44.9553 154.175 45.17C154.53 45.3753 154.81 45.632 155.015 45.94C155.221 46.2387 155.323 46.6073 155.323 47.046C155.323 47.6713 155.16 48.2173 154.833 48.684C154.516 49.1413 154.059 49.5007 153.461 49.762C152.864 50.014 152.159 50.14 151.347 50.14C150.489 50.14 149.709 49.9907 149.009 49.692C148.309 49.3933 147.693 48.908 147.161 48.236L148.169 47.018ZM163.626 50H158.166V48.558H160.14V41.642H158.166V40.2H163.626V41.642H161.652V48.558H163.626V50ZM175.138 48.698C174.914 48.922 174.606 49.146 174.214 49.37C173.831 49.5847 173.388 49.7667 172.884 49.916C172.38 50.0653 171.843 50.14 171.274 50.14C170.565 50.14 169.902 50.0233 169.286 49.79C168.67 49.5473 168.129 49.2067 167.662 48.768C167.205 48.3293 166.845 47.802 166.584 47.186C166.332 46.5607 166.206 45.8653 166.206 45.1C166.206 44.3813 166.341 43.7187 166.612 43.112C166.883 42.5053 167.256 41.978 167.732 41.53C168.217 41.082 168.768 40.7367 169.384 40.494C170 40.242 170.653 40.116 171.344 40.116C171.923 40.116 172.464 40.2 172.968 40.368C173.481 40.5267 173.934 40.732 174.326 40.984C174.727 41.236 175.045 41.502 175.278 41.782L174.312 42.93C173.901 42.5473 173.444 42.2347 172.94 41.992C172.445 41.74 171.895 41.614 171.288 41.614C170.691 41.614 170.121 41.754 169.58 42.034C169.039 42.314 168.595 42.7153 168.25 43.238C167.914 43.7607 167.746 44.3813 167.746 45.1C167.746 45.884 167.919 46.5373 168.264 47.06C168.619 47.5827 169.076 47.9793 169.636 48.25C170.205 48.5113 170.817 48.642 171.47 48.642C172.133 48.642 172.707 48.516 173.192 48.264C173.677 48.0027 174.079 47.732 174.396 47.452L175.138 48.698ZM185.355 50L184.347 47.62H179.587L178.565 50H177.011L181.197 40.2H182.835L186.993 50H185.355ZM181.211 43.812L180.203 46.164H183.731L182.695 43.756C182.574 43.448 182.453 43.1353 182.331 42.818C182.21 42.4913 182.089 42.1553 181.967 41.81C181.837 42.1647 181.711 42.51 181.589 42.846C181.468 43.182 181.342 43.504 181.211 43.812ZM198.931 40.2C199.743 40.2 200.457 40.3307 201.073 40.592C201.689 40.844 202.207 41.1987 202.627 41.656C203.047 42.104 203.359 42.6267 203.565 43.224C203.779 43.812 203.887 44.4373 203.887 45.1C203.887 45.996 203.7 46.8173 203.327 47.564C202.953 48.3013 202.398 48.894 201.661 49.342C200.923 49.7807 200.013 50 198.931 50H194.647V40.2H198.931ZM198.861 48.544C199.673 48.544 200.331 48.39 200.835 48.082C201.348 47.7647 201.721 47.3493 201.955 46.836C202.197 46.3133 202.319 45.7347 202.319 45.1C202.319 44.484 202.197 43.9147 201.955 43.392C201.721 42.8693 201.348 42.4493 200.835 42.132C200.321 41.8147 199.663 41.656 198.861 41.656H196.159V48.544H198.861ZM216.628 45.1C216.628 45.8093 216.497 46.472 216.236 47.088C215.984 47.6947 215.62 48.2267 215.144 48.684C214.677 49.1413 214.122 49.5007 213.478 49.762C212.843 50.014 212.143 50.14 211.378 50.14C210.612 50.14 209.908 50.014 209.264 49.762C208.62 49.5007 208.064 49.1413 207.598 48.684C207.131 48.2267 206.767 47.6947 206.506 47.088C206.254 46.472 206.128 45.8093 206.128 45.1C206.128 44.3907 206.254 43.7327 206.506 43.126C206.767 42.51 207.131 41.9733 207.598 41.516C208.064 41.0587 208.62 40.704 209.264 40.452C209.908 40.1907 210.612 40.06 211.378 40.06C212.143 40.06 212.843 40.1907 213.478 40.452C214.122 40.704 214.677 41.0587 215.144 41.516C215.62 41.9733 215.984 42.51 216.236 43.126C216.497 43.7327 216.628 44.3907 216.628 45.1ZM215.088 45.1C215.088 44.4187 214.929 43.812 214.612 43.28C214.294 42.7387 213.856 42.314 213.296 42.006C212.736 41.6887 212.096 41.53 211.378 41.53C210.64 41.53 209.992 41.6887 209.432 42.006C208.881 42.314 208.447 42.7387 208.13 43.28C207.822 43.812 207.668 44.4187 207.668 45.1C207.668 45.7813 207.822 46.3927 208.13 46.934C208.447 47.466 208.881 47.8907 209.432 48.208C209.992 48.516 210.64 48.67 211.378 48.67C212.096 48.67 212.736 48.516 213.296 48.208C213.856 47.8907 214.294 47.4613 214.612 46.92C214.929 46.3787 215.088 45.772 215.088 45.1ZM234.442 45.1C234.442 45.8093 234.312 46.472 234.05 47.088C233.798 47.6947 233.434 48.2267 232.958 48.684C232.492 49.1413 231.936 49.5007 231.292 49.762C230.658 50.014 229.958 50.14 229.192 50.14C228.427 50.14 227.722 50.014 227.078 49.762C226.434 49.5007 225.879 49.1413 225.412 48.684C224.946 48.2267 224.582 47.6947 224.32 47.088C224.068 46.472 223.942 45.8093 223.942 45.1C223.942 44.3907 224.068 43.7327 224.32 43.126C224.582 42.51 224.946 41.9733 225.412 41.516C225.879 41.0587 226.434 40.704 227.078 40.452C227.722 40.1907 228.427 40.06 229.192 40.06C229.958 40.06 230.658 40.1907 231.292 40.452C231.936 40.704 232.492 41.0587 232.958 41.516C233.434 41.9733 233.798 42.51 234.05 43.126C234.312 43.7327 234.442 44.3907 234.442 45.1ZM232.902 45.1C232.902 44.4187 232.744 43.812 232.426 43.28C232.109 42.7387 231.67 42.314 231.11 42.006C230.55 41.6887 229.911 41.53 229.192 41.53C228.455 41.53 227.806 41.6887 227.246 42.006C226.696 42.314 226.262 42.7387 225.944 43.28C225.636 43.812 225.482 44.4187 225.482 45.1C225.482 45.7813 225.636 46.3927 225.944 46.934C226.262 47.466 226.696 47.8907 227.246 48.208C227.806 48.516 228.455 48.67 229.192 48.67C229.911 48.67 230.55 48.516 231.11 48.208C231.67 47.8907 232.109 47.4613 232.426 46.92C232.744 46.3787 232.902 45.772 232.902 45.1ZM228.926 39.472L228.45 38.758L230.452 37.008L231.362 38.156L228.926 39.472ZM242.004 40.2C243.068 40.2 243.871 40.41 244.412 40.83C244.954 41.25 245.224 41.8613 245.224 42.664C245.224 43.1027 245.108 43.4993 244.874 43.854C244.641 44.1993 244.3 44.4653 243.852 44.652C244.188 44.764 244.496 44.9227 244.776 45.128C245.066 45.3333 245.299 45.5993 245.476 45.926C245.654 46.2527 245.742 46.6493 245.742 47.116C245.742 47.6853 245.635 48.1567 245.42 48.53C245.215 48.9033 244.94 49.1973 244.594 49.412C244.249 49.6267 243.871 49.7807 243.46 49.874C243.05 49.958 242.639 50 242.228 50H237.412V40.2H242.004ZM241.892 41.656H238.924V44.232H242.06C242.49 44.2227 242.868 44.106 243.194 43.882C243.521 43.658 243.684 43.3407 243.684 42.93C243.684 42.4727 243.512 42.146 243.166 41.95C242.821 41.754 242.396 41.656 241.892 41.656ZM242.13 45.688H238.924V48.544H242.2C242.788 48.544 243.269 48.4273 243.642 48.194C244.016 47.9513 244.202 47.5827 244.202 47.088C244.202 46.7333 244.095 46.4533 243.88 46.248C243.666 46.0427 243.4 45.898 243.082 45.814C242.765 45.73 242.448 45.688 242.13 45.688ZM253.983 50H248.523V48.558H250.497V41.642H248.523V40.2H253.983V41.642H252.009V48.558H253.983V50ZM259.638 50V41.656H256.502V40.2H264.37V41.656H261.15V50H259.638ZM276.415 45.1C276.415 45.8093 276.284 46.472 276.023 47.088C275.771 47.6947 275.407 48.2267 274.931 48.684C274.464 49.1413 273.909 49.5007 273.265 49.762C272.63 50.014 271.93 50.14 271.165 50.14C270.4 50.14 269.695 50.014 269.051 49.762C268.407 49.5007 267.852 49.1413 267.385 48.684C266.918 48.2267 266.554 47.6947 266.293 47.088C266.041 46.472 265.915 45.8093 265.915 45.1C265.915 44.3907 266.041 43.7327 266.293 43.126C266.554 42.51 266.918 41.9733 267.385 41.516C267.852 41.0587 268.407 40.704 269.051 40.452C269.695 40.1907 270.4 40.06 271.165 40.06C271.93 40.06 272.63 40.1907 273.265 40.452C273.909 40.704 274.464 41.0587 274.931 41.516C275.407 41.9733 275.771 42.51 276.023 43.126C276.284 43.7327 276.415 44.3907 276.415 45.1ZM274.875 45.1C274.875 44.4187 274.716 43.812 274.399 43.28C274.082 42.7387 273.643 42.314 273.083 42.006C272.523 41.6887 271.884 41.53 271.165 41.53C270.428 41.53 269.779 41.6887 269.219 42.006C268.668 42.314 268.234 42.7387 267.917 43.28C267.609 43.812 267.455 44.4187 267.455 45.1C267.455 45.7813 267.609 46.3927 267.917 46.934C268.234 47.466 268.668 47.8907 269.219 48.208C269.779 48.516 270.428 48.67 271.165 48.67C271.884 48.67 272.523 48.516 273.083 48.208C273.643 47.8907 274.082 47.4613 274.399 46.92C274.716 46.3787 274.875 45.772 274.875 45.1Z" fill="#3C9AE4"/>
<path d="M66.96 8.7V17.429H78.705V8.7H81.837V29H78.705V20.445H66.96V29H63.828V8.7H66.96ZM104.422 29L102.334 24.07H92.4739L90.3569 29H87.1379L95.8089 8.7H99.2019L107.815 29H104.422ZM95.8379 16.182L93.7499 21.054H101.058L98.9119 16.066C98.6606 15.428 98.4092 14.7803 98.1579 14.123C97.9066 13.4463 97.6552 12.7503 97.4039 12.035C97.1332 12.7697 96.8722 13.485 96.6209 14.181C96.3696 14.877 96.1086 15.544 95.8379 16.182ZM129.59 26.303C129.126 26.767 128.488 27.231 127.676 27.695C126.883 28.1397 125.965 28.5167 124.921 28.826C123.877 29.1353 122.765 29.29 121.586 29.29C120.116 29.29 118.744 29.0483 117.468 28.565C116.192 28.0623 115.07 27.3567 114.104 26.448C113.156 25.5393 112.412 24.447 111.871 23.171C111.349 21.8757 111.088 20.4353 111.088 18.85C111.088 17.3613 111.368 15.9887 111.929 14.732C112.489 13.4753 113.263 12.383 114.249 11.455C115.254 10.527 116.395 9.81167 117.671 9.309C118.947 8.787 120.3 8.526 121.731 8.526C122.929 8.526 124.051 8.7 125.095 9.048C126.158 9.37667 127.096 9.802 127.908 10.324C128.739 10.846 129.396 11.397 129.88 11.977L127.879 14.355C127.028 13.5623 126.081 12.9147 125.037 12.412C124.012 11.89 122.871 11.629 121.615 11.629C120.377 11.629 119.198 11.919 118.077 12.499C116.955 13.079 116.037 13.9103 115.322 14.993C114.626 16.0757 114.278 17.3613 114.278 18.85C114.278 20.474 114.635 21.8273 115.351 22.91C116.085 23.9927 117.033 24.8143 118.193 25.375C119.372 25.9163 120.638 26.187 121.992 26.187C123.364 26.187 124.553 25.926 125.559 25.404C126.564 24.8627 127.395 24.302 128.053 23.722L129.59 26.303ZM138.922 29H135.79V8.7H138.922V19.082L143.04 15.428L150.493 8.7H154.843L145.36 17.023L154.785 29H150.754L143.069 19.082L138.922 22.736V29ZM175.931 29L173.843 24.07H163.983L161.866 29H158.647L167.318 8.7H170.711L179.324 29H175.931ZM167.347 16.182L165.259 21.054H172.567L170.421 16.066C170.169 15.428 169.918 14.7803 169.667 14.123C169.415 13.4463 169.164 12.7503 168.913 12.035C168.642 12.7697 168.381 13.485 168.13 14.181C167.878 14.877 167.617 15.544 167.347 16.182ZM187.663 29V11.716H181.167V8.7H197.465V11.716H190.795V29H187.663ZM206.183 8.7V17.429H217.928V8.7H221.06V29H217.928V20.445H206.183V29H203.051V8.7H206.183ZM248.923 18.85C248.923 20.3193 248.652 21.692 248.111 22.968C247.589 24.2247 246.835 25.3267 245.849 26.274C244.882 27.2213 243.732 27.9657 242.398 28.507C241.083 29.029 239.633 29.29 238.048 29.29C236.462 29.29 235.003 29.029 233.669 28.507C232.335 27.9657 231.184 27.2213 230.218 26.274C229.251 25.3267 228.497 24.2247 227.956 22.968C227.434 21.692 227.173 20.3193 227.173 18.85C227.173 17.3807 227.434 16.0177 227.956 14.761C228.497 13.485 229.251 12.3733 230.218 11.426C231.184 10.4787 232.335 9.744 233.669 9.222C235.003 8.68067 236.462 8.41 238.048 8.41C239.633 8.41 241.083 8.68067 242.398 9.222C243.732 9.744 244.882 10.4787 245.849 11.426C246.835 12.3733 247.589 13.485 248.111 14.761C248.652 16.0177 248.923 17.3807 248.923 18.85ZM245.733 18.85C245.733 17.4387 245.404 16.182 244.747 15.08C244.089 13.9587 243.181 13.079 242.021 12.441C240.861 11.7837 239.536 11.455 238.048 11.455C236.52 11.455 235.177 11.7837 234.017 12.441C232.876 13.079 231.977 13.9587 231.32 15.08C230.682 16.182 230.363 17.4387 230.363 18.85C230.363 20.2613 230.682 21.5277 231.32 22.649C231.977 23.751 232.876 24.6307 234.017 25.288C235.177 25.926 236.52 26.245 238.048 26.245C239.536 26.245 240.861 25.926 242.021 25.288C243.181 24.6307 244.089 23.7413 244.747 22.62C245.404 21.4987 245.733 20.242 245.733 18.85ZM271.112 8.7H274.244V29H271.257L257.685 13.311C257.801 14.5097 257.917 15.718 258.033 16.936C258.149 18.1347 258.207 19.343 258.207 20.561V29H255.075V8.7H258.004L271.576 24.766C271.441 23.8187 271.334 22.8037 271.257 21.721C271.199 20.6383 271.16 19.5557 271.141 18.473C271.122 17.371 271.112 16.3367 271.112 15.37V8.7Z" fill="white"/>
<rect x="24" y="40" width="9" height="9" fill="white"/>
<rect x="24" y="16" width="9" height="9" fill="white"/>
<rect x="36" y="40" width="9" height="9" fill="#3C9AE4"/>
<rect x="12" y="40" width="9" height="9" fill="white"/>
<rect y="28" width="9" height="9" fill="#3C9AE4"/>
<rect x="24" y="28" width="9" height="9" fill="#FF7513"/>
<rect x="36" y="28" width="9" height="9" fill="white"/>
<rect x="36" y="4" width="9" height="9" fill="#FF7513"/>
</svg>
