<svg width="25" height="26" viewBox="0 0 25 26" fill="none" xmlns="http://www.w3.org/2000/svg">
<path d="M24 18.8103L24 6.93675C24 3.65797 21.4256 1 18.25 1L6.75 0.999999C3.57437 0.999999 1 3.65797 1 6.93675L1 18.8103C1 22.089 3.57436 24.747 6.75 24.747L18.25 24.747C21.4256 24.747 24 22.089 24 18.8103Z" stroke="#0D0030" stroke-width="2" stroke-linecap="round" stroke-linejoin="round"/>
<path d="M13.7334 17.7673C12.6931 17.92 11.6306 17.7441 10.6972 17.2649C9.76365 16.7856 9.00666 16.0273 8.53383 15.0978C8.061 14.1683 7.89643 13.115 8.06351 12.0876C8.23059 11.0602 8.72082 10.1111 9.46447 9.3753C10.2081 8.63949 11.1673 8.15443 12.2057 7.98911C13.244 7.82379 14.3085 7.98663 15.2479 8.45447C16.1873 8.92231 16.9537 9.67133 17.4381 10.595C17.9225 11.5186 18.1002 12.5699 17.9459 13.5992C17.7886 14.6492 17.2941 15.6213 16.5355 16.3718C15.777 17.1224 14.7946 17.6116 13.7334 17.7673Z" stroke="#0D0030" stroke-width="2" stroke-linecap="round" stroke-linejoin="round"/>
<circle cx="19" cy="7.85547" r="1" transform="rotate(90 19 7.85547)" fill="#0D0030"/>
</svg>
