<svg width="222" height="73" viewBox="0 0 222 73" fill="none" xmlns="http://www.w3.org/2000/svg">
<g clip-path="url(#clip0)">
<path d="M218.174 19.514C218.174 16.9436 216.113 14.8599 213.57 14.8599C211.027 14.8599 208.966 16.9436 208.966 19.514V34.921C208.966 37.4914 211.027 39.5752 213.57 39.5752C216.113 39.5752 218.174 37.4914 218.174 34.921V19.514Z" fill="white"/>
<path d="M107.75 3.53271C98.3579 3.53271 91.3246 11.753 91.3246 21.026V35.2132C91.3246 36.3693 91.779 37.478 92.5876 38.2954C93.3963 39.1129 94.4931 39.5721 95.6367 39.5721C96.7803 39.5721 97.8771 39.1129 98.6858 38.2954C99.4944 37.478 99.9487 36.3693 99.9487 35.2132V21.026C99.9487 16.5837 103.124 12.3082 107.75 12.3082C112.377 12.3082 115.552 16.5837 115.552 21.026V35.2132C115.552 35.7859 115.663 36.3531 115.879 36.8823C116.096 37.4115 116.413 37.8924 116.814 38.2975C117.214 38.7026 117.69 39.024 118.213 39.2432C118.737 39.4625 119.298 39.5753 119.864 39.5753C120.431 39.5753 120.992 39.4625 121.515 39.2432C122.038 39.024 122.514 38.7026 122.914 38.2975C123.315 37.8924 123.632 37.4115 123.849 36.8823C124.065 36.3531 124.177 35.7859 124.176 35.2132V21.026C124.176 11.753 117.146 3.53271 107.75 3.53271Z" fill="white"/>
<path d="M197.773 3.75391C196.893 3.75435 196.034 4.02459 195.31 4.52892C194.585 5.03324 194.029 5.74792 193.715 6.57851L186.215 26.4117L178.451 6.53358C178.131 5.71394 177.574 5.0106 176.853 4.5149C176.133 4.01921 175.281 3.75406 174.409 3.75391H174.365C173.656 3.75431 172.959 3.92989 172.333 4.26532C171.707 4.60076 171.171 5.08588 170.773 5.67839C170.375 6.27091 170.127 6.95282 170.049 7.6647C169.972 8.37658 170.068 9.09681 170.329 9.76261L180.007 34.4779C181.106 37.2544 183.182 39.5879 186.323 39.5879C189.463 39.5879 191.543 37.0875 192.588 34.3656L201.837 9.71768C202.087 9.05259 202.172 8.33629 202.087 7.63028C202.002 6.92427 201.749 6.24966 201.349 5.66439C200.95 5.07911 200.415 4.60066 199.792 4.27013C199.169 3.93959 198.476 3.76685 197.773 3.76675" fill="white"/>
<path d="M148.769 3.58691C139.649 3.58691 132.232 11.4188 132.232 21.1348V35.2129C132.231 36.3684 132.684 37.4769 133.491 38.2949C134.299 39.1128 135.394 39.5733 136.538 39.575H136.649C137.217 39.5779 137.78 39.4673 138.306 39.2493C138.832 39.0314 139.31 38.7105 139.713 38.3051C140.116 37.8997 140.436 37.4178 140.654 36.8871C140.871 36.3564 140.983 35.7874 140.983 35.2129V21.1348C140.983 16.3201 144.498 12.3625 148.785 12.3625C153.125 12.3625 156.64 16.3041 156.64 21.1348V35.2129C156.64 35.7856 156.751 36.3527 156.968 36.8819C157.184 37.4111 157.502 37.892 157.902 38.2971C158.303 38.7022 158.778 39.0236 159.301 39.2429C159.825 39.4621 160.386 39.575 160.952 39.575H160.987C161.554 39.575 162.115 39.4621 162.638 39.2429C163.162 39.0236 163.637 38.7022 164.037 38.2971C164.438 37.892 164.755 37.4111 164.972 36.8819C165.188 36.3527 165.3 35.7856 165.299 35.2129V21.1348C165.299 11.4188 157.885 3.58691 148.766 3.58691" fill="white"/>
<path d="M148.794 14.8599C147.559 14.8599 146.374 15.356 145.5 16.239C144.627 17.1221 144.136 18.3198 144.136 19.5686C144.136 20.8174 144.627 22.0151 145.5 22.8982C146.374 23.7813 147.559 24.2774 148.794 24.2774C149.406 24.2778 150.012 24.1563 150.578 23.9198C151.143 23.6834 151.657 23.3366 152.09 22.8993C152.523 22.462 152.866 21.9428 153.1 21.3713C153.335 20.7998 153.455 20.1872 153.455 19.5686C153.455 18.95 153.335 18.3374 153.1 17.7659C152.866 17.1944 152.523 16.6752 152.09 16.2379C151.657 15.8006 151.143 15.4538 150.578 15.2174C150.012 14.9809 149.406 14.8594 148.794 14.8599Z" fill="white"/>
<path d="M213.57 12.7476C214.492 12.7483 215.394 12.4724 216.161 11.9549C216.928 11.4374 217.526 10.7015 217.879 9.84036C218.232 8.97923 218.325 8.03155 218.145 7.11722C217.965 6.20289 217.521 5.363 216.869 4.70383C216.217 4.04466 215.386 3.59582 214.481 3.41412C213.577 3.23241 212.639 3.32599 211.788 3.68302C210.936 4.04006 210.208 4.6445 209.696 5.41987C209.184 6.19524 208.911 7.10669 208.912 8.0389C208.912 9.28773 209.402 10.4854 210.276 11.3685C211.149 12.2515 212.334 12.7476 213.57 12.7476Z" fill="white"/>
<path d="M98.2325 56.855H97.0799L92.7027 50.1548V56.855H91.5502V48.1602H92.7027L97.0919 54.8903V48.1602H98.2325V56.855ZM107.246 48.1602V54.0722C107.242 54.8923 106.983 55.5631 106.47 56.0846C105.96 56.6062 105.267 56.8988 104.391 56.9625L104.087 56.9744C103.135 56.9744 102.377 56.7176 101.812 56.2041C101.246 55.6905 100.96 54.9839 100.952 54.0841V48.1602H102.086V54.0483C102.086 54.6773 102.26 55.167 102.606 55.5173C102.952 55.8637 103.446 56.0369 104.087 56.0369C104.736 56.0369 105.231 55.8637 105.574 55.5173C105.92 55.171 106.093 54.6833 106.093 54.0543V48.1602H107.246ZM104.642 45.8313H105.98L104.379 47.5869H103.49L104.642 45.8313ZM116.307 54.0961C116.2 55.0157 115.859 55.7263 115.286 56.228C114.717 56.7256 113.958 56.9744 113.011 56.9744C111.984 56.9744 111.159 56.6062 110.538 55.8697C109.921 55.1331 109.613 54.1478 109.613 52.9137V52.0776C109.613 51.2695 109.756 50.5588 110.043 49.9457C110.333 49.3327 110.743 48.8629 111.273 48.5364C111.802 48.206 112.416 48.0408 113.112 48.0408C114.036 48.0408 114.776 48.2996 115.334 48.8171C115.891 49.3307 116.216 50.0433 116.307 50.955H115.155C115.055 50.2622 114.838 49.7606 114.504 49.4501C114.173 49.1396 113.709 48.9843 113.112 48.9843C112.38 48.9843 111.804 49.255 111.386 49.7965C110.972 50.3379 110.765 51.1082 110.765 52.1075V52.9495C110.765 53.893 110.962 54.6435 111.357 55.2008C111.751 55.7582 112.302 56.0369 113.011 56.0369C113.648 56.0369 114.135 55.8935 114.474 55.6069C114.816 55.3163 115.043 54.8127 115.155 54.0961H116.307ZM119.886 55.9174H124.007V56.855H118.734V48.1602H119.886V55.9174ZM131.085 52.836H127.317V55.9174H131.694V56.855H126.171V48.1602H131.635V49.1037H127.317V51.8985H131.085V52.836ZM140.666 52.7883C140.666 53.6402 140.523 54.3847 140.236 55.0217C139.949 55.6547 139.543 56.1384 139.018 56.4728C138.492 56.8072 137.879 56.9744 137.179 56.9744C136.494 56.9744 135.887 56.8072 135.357 56.4728C134.828 56.1344 134.416 55.6547 134.121 55.0336C133.83 54.4086 133.681 53.686 133.673 52.8659V52.2389C133.673 51.4028 133.819 50.6643 134.109 50.0234C134.4 49.3824 134.81 48.8927 135.339 48.5543C135.873 48.212 136.482 48.0408 137.167 48.0408C137.863 48.0408 138.476 48.21 139.006 48.5484C139.539 48.8828 139.949 49.3705 140.236 50.0114C140.523 50.6484 140.666 51.3909 140.666 52.2389V52.7883ZM139.525 52.2269C139.525 51.1958 139.318 50.4056 138.904 49.8562C138.49 49.3028 137.911 49.0261 137.167 49.0261C136.442 49.0261 135.871 49.3028 135.453 49.8562C135.039 50.4056 134.826 51.1699 134.814 52.1493V52.7883C134.814 53.7875 135.023 54.5738 135.441 55.1471C135.863 55.7164 136.442 56.001 137.179 56.001C137.919 56.001 138.492 55.7323 138.898 55.1949C139.304 54.6534 139.514 53.8791 139.525 52.8719V52.2269ZM151.933 54.5857H148.29L147.472 56.855H146.29L149.61 48.1602H150.613L153.939 56.855H152.763L151.933 54.5857ZM148.637 53.6422H151.593L150.112 49.5755L148.637 53.6422ZM158.319 55.3322L160.803 48.1602H162.057L158.832 56.855H157.817L154.598 48.1602H155.847L158.319 55.3322ZM168.431 54.5857H164.788L163.97 56.855H162.788L166.108 48.1602H167.111L170.437 56.855H169.261L168.431 54.5857ZM165.135 53.6422H168.091L166.61 49.5755L165.135 53.6422ZM179.146 56.855H177.994L173.617 50.1548V56.855H172.464V48.1602H173.617L178.006 54.8903V48.1602H179.146V56.855ZM188.434 54.0961C188.327 55.0157 187.987 55.7263 187.413 56.228C186.844 56.7256 186.086 56.9744 185.138 56.9744C184.111 56.9744 183.287 56.6062 182.666 55.8697C182.049 55.1331 181.74 54.1478 181.74 52.9137V52.0776C181.74 51.2695 181.884 50.5588 182.17 49.9457C182.461 49.3327 182.871 48.8629 183.4 48.5364C183.93 48.206 184.543 48.0408 185.24 48.0408C186.163 48.0408 186.904 48.2996 187.461 48.8171C188.018 49.3307 188.343 50.0433 188.434 50.955H187.282C187.182 50.2622 186.965 49.7606 186.631 49.4501C186.301 49.1396 185.837 48.9843 185.24 48.9843C184.507 48.9843 183.932 49.255 183.514 49.7965C183.1 50.3379 182.893 51.1082 182.893 52.1075V52.9495C182.893 53.893 183.09 54.6435 183.484 55.2008C183.878 55.7582 184.429 56.0369 185.138 56.0369C185.775 56.0369 186.263 55.8935 186.601 55.6069C186.944 55.3163 187.17 54.8127 187.282 54.0961H188.434ZM185.514 56.9087L185.443 57.2193C186.052 57.3267 186.356 57.6711 186.356 58.2524C186.356 58.6385 186.197 58.9431 185.879 59.166C185.56 59.3929 185.116 59.5064 184.547 59.5064L184.505 58.8674C184.82 58.8674 185.062 58.8157 185.234 58.7122C185.409 58.6087 185.496 58.4634 185.496 58.2762C185.496 58.1011 185.433 57.9717 185.305 57.8881C185.178 57.8045 184.919 57.7448 184.529 57.7089L184.72 56.9087H185.514ZM195.662 54.5857H192.02L191.201 56.855H190.019L193.339 48.1602H194.343L197.669 56.855H196.492L195.662 54.5857ZM192.366 53.6422H195.322L193.841 49.5755L192.366 53.6422ZM199.695 56.855V48.1602H202.15C202.906 48.1602 203.575 48.3274 204.156 48.6618C204.737 48.9963 205.185 49.472 205.5 50.0891C205.818 50.7061 205.98 51.4148 205.984 52.215V52.7704C205.984 53.5905 205.824 54.3091 205.506 54.9261C205.191 55.5432 204.739 56.017 204.15 56.3474C203.565 56.6778 202.882 56.847 202.102 56.855H199.695ZM200.842 49.1037V55.9174H202.048C202.932 55.9174 203.619 55.6427 204.108 55.0933C204.602 54.5439 204.849 53.7617 204.849 52.7465V52.2389C204.849 51.2516 204.616 50.4852 204.15 49.9398C203.688 49.3904 203.032 49.1117 202.18 49.1037H200.842ZM215.266 52.7883C215.266 53.6402 215.122 54.3847 214.836 55.0217C214.549 55.6547 214.143 56.1384 213.618 56.4728C213.092 56.8072 212.479 56.9744 211.778 56.9744C211.093 56.9744 210.486 56.8072 209.957 56.4728C209.427 56.1344 209.015 55.6547 208.721 55.0336C208.43 54.4086 208.281 53.686 208.273 52.8659V52.2389C208.273 51.4028 208.418 50.6643 208.709 50.0234C208.999 49.3824 209.409 48.8927 209.939 48.5543C210.472 48.212 211.082 48.0408 211.766 48.0408C212.463 48.0408 213.076 48.21 213.606 48.5484C214.139 48.8828 214.549 49.3705 214.836 50.0114C215.122 50.6484 215.266 51.3909 215.266 52.2389V52.7883ZM214.125 52.2269C214.125 51.1958 213.918 50.4056 213.504 49.8562C213.09 49.3028 212.511 49.0261 211.766 49.0261C211.042 49.0261 210.47 49.3028 210.052 49.8562C209.638 50.4056 209.425 51.1699 209.413 52.1493V52.7883C209.413 53.7875 209.622 54.5738 210.04 55.1471C210.462 55.7164 211.042 56.001 211.778 56.001C212.519 56.001 213.092 55.7323 213.498 55.1949C213.904 54.6534 214.113 53.8791 214.125 52.8719V52.2269ZM91.5502 70.855V62.1602H94.0045C94.7609 62.1602 95.4298 62.3274 96.011 62.6618C96.5923 62.9963 97.0401 63.472 97.3546 64.0891C97.6731 64.7061 97.8344 65.4148 97.8383 66.215V66.7704C97.8383 67.5905 97.6791 68.3091 97.3606 68.9261C97.0461 69.5432 96.5942 70.017 96.005 70.3474C95.4198 70.6778 94.7371 70.847 93.9568 70.855H91.5502ZM92.6967 63.1037V69.9174H93.903C94.7868 69.9174 95.4736 69.6427 95.9632 69.0933C96.4569 68.5439 96.7037 67.7617 96.7037 66.7465V66.2389C96.7037 65.2516 96.4708 64.4852 96.005 63.9398C95.5432 63.3904 94.8863 63.1117 94.0344 63.1037H92.6967ZM105.347 66.836H101.579V69.9174H105.956V70.855H100.432V62.1602H105.896V63.1037H101.579V65.8985H105.347V66.836ZM113.359 70.855H112.213V62.1602H113.359V70.855ZM122.266 70.855H121.113L116.736 64.1548V70.855H115.584V62.1602H116.736L121.125 68.8903V62.1602H122.266V70.855ZM131.113 66.7883C131.113 67.6402 130.969 68.3847 130.683 69.0217C130.396 69.6547 129.99 70.1384 129.465 70.4728C128.939 70.8072 128.326 70.9744 127.625 70.9744C126.941 70.9744 126.333 70.8072 125.804 70.4728C125.274 70.1344 124.862 69.6547 124.568 69.0336C124.277 68.4086 124.128 67.686 124.12 66.8659V66.2389C124.12 65.4028 124.265 64.6643 124.556 64.0234C124.846 63.3824 125.257 62.8927 125.786 62.5543C126.32 62.212 126.929 62.0408 127.613 62.0408C128.31 62.0408 128.923 62.21 129.453 62.5484C129.986 62.8828 130.396 63.3705 130.683 64.0114C130.969 64.6484 131.113 65.3909 131.113 66.2389V66.7883ZM129.972 66.2269C129.972 65.1958 129.765 64.4056 129.351 63.8562C128.937 63.3028 128.358 63.0261 127.613 63.0261C126.889 63.0261 126.318 63.3028 125.9 63.8562C125.485 64.4056 125.272 65.1699 125.261 66.1493V66.7883C125.261 67.7875 125.47 68.5738 125.888 69.1471C126.31 69.7164 126.889 70.001 127.625 70.001C128.366 70.001 128.939 69.7323 129.345 69.1949C129.751 68.6534 129.96 67.8791 129.972 66.8719V66.2269ZM135.702 69.3322L138.186 62.1602H139.44L136.215 70.855H135.2L131.982 62.1602H133.23L135.702 69.3322ZM145.08 68.5857H141.438L140.619 70.855H139.437L142.757 62.1602H143.761L147.087 70.855H145.91L145.08 68.5857ZM141.784 67.6422H144.74L143.259 63.5755L141.784 67.6422ZM154.704 68.0961C154.596 69.0157 154.256 69.7263 153.682 70.228C153.113 70.7256 152.355 70.9744 151.407 70.9744C150.38 70.9744 149.556 70.6062 148.935 69.8697C148.318 69.1331 148.009 68.1478 148.009 66.9137V66.0776C148.009 65.2695 148.153 64.5588 148.439 63.9457C148.73 63.3327 149.14 62.8629 149.669 62.5364C150.199 62.206 150.812 62.0408 151.509 62.0408C152.432 62.0408 153.173 62.2996 153.73 62.8171C154.288 63.3307 154.612 64.0433 154.704 64.955H153.551C153.451 64.2622 153.235 63.7606 152.9 63.4501C152.57 63.1396 152.106 62.9843 151.509 62.9843C150.776 62.9843 150.201 63.255 149.783 63.7965C149.369 64.3379 149.162 65.1082 149.162 66.1075V66.9495C149.162 67.893 149.359 68.6435 149.753 69.2008C150.147 69.7582 150.699 70.0369 151.407 70.0369C152.044 70.0369 152.532 69.8935 152.87 69.6069C153.213 69.3163 153.44 68.8127 153.551 68.0961H154.704ZM151.783 70.9087L151.712 71.2193C152.321 71.3267 152.625 71.6711 152.625 72.2524C152.625 72.6385 152.466 72.9431 152.148 73.166C151.829 73.3929 151.385 73.5064 150.816 73.5064L150.774 72.8674C151.089 72.8674 151.332 72.8157 151.503 72.7122C151.678 72.6087 151.765 72.4634 151.765 72.2762C151.765 72.1011 151.702 71.9717 151.574 71.8881C151.447 71.8045 151.188 71.7448 150.798 71.7089L150.989 70.9087H151.783ZM161.198 68.5857H157.555L156.737 70.855H155.554L158.875 62.1602H159.878L163.204 70.855H162.028L161.198 68.5857ZM157.901 67.6422H160.857L159.376 63.5755L157.901 67.6422ZM161.52 60.0224C161.52 60.4523 161.397 60.8007 161.15 61.0674C160.907 61.3341 160.602 61.4675 160.236 61.4675C160.073 61.4675 159.932 61.4476 159.812 61.4078C159.693 61.368 159.536 61.2864 159.34 61.1629C159.149 61.0395 159.01 60.9659 158.922 60.942C158.839 60.9141 158.741 60.9002 158.63 60.9002C158.467 60.9002 158.327 60.9639 158.212 61.0913C158.096 61.2147 158.039 61.3739 158.039 61.569L157.298 61.5272C157.298 61.1012 157.418 60.7489 157.656 60.4702C157.899 60.1916 158.206 60.0522 158.576 60.0522C158.715 60.0522 158.841 60.0721 158.952 60.1119C159.064 60.1517 159.215 60.2294 159.406 60.3448C159.597 60.4603 159.743 60.5359 159.842 60.5717C159.946 60.6076 160.059 60.6255 160.182 60.6255C160.354 60.6255 160.495 60.5578 160.606 60.4225C160.722 60.2871 160.78 60.1298 160.78 59.9507L161.52 60.0224ZM171.113 66.7883C171.113 67.6402 170.97 68.3847 170.684 69.0217C170.397 69.6547 169.991 70.1384 169.465 70.4728C168.94 70.8072 168.327 70.9744 167.626 70.9744C166.941 70.9744 166.334 70.8072 165.805 70.4728C165.275 70.1344 164.863 69.6547 164.569 69.0336C164.278 68.4086 164.129 67.686 164.121 66.8659V66.2389C164.121 65.4028 164.266 64.6643 164.557 64.0234C164.847 63.3824 165.257 62.8927 165.787 62.5543C166.32 62.212 166.929 62.0408 167.614 62.0408C168.311 62.0408 168.924 62.21 169.453 62.5484C169.987 62.8828 170.397 63.3705 170.684 64.0114C170.97 64.6484 171.113 65.3909 171.113 66.2389V66.7883ZM169.973 66.2269C169.973 65.1958 169.766 64.4056 169.352 63.8562C168.938 63.3028 168.359 63.0261 167.614 63.0261C166.89 63.0261 166.318 63.3028 165.9 63.8562C165.486 64.4056 165.273 65.1699 165.261 66.1493V66.7883C165.261 67.7875 165.47 68.5738 165.888 69.1471C166.31 69.7164 166.89 70.001 167.626 70.001C168.367 70.001 168.94 69.7323 169.346 69.1949C169.752 68.6534 169.961 67.8791 169.973 66.8719V66.2269ZM97.5577 77.1037H94.7629V84.855H93.6223V77.1037H90.8336V76.1602H97.5577V77.1037ZM103.885 80.836H100.116V83.9174H104.494V84.855H98.9699V76.1602H104.434V77.1037H100.116V79.8985H103.885V80.836ZM112.439 82.0961C112.331 83.0157 111.991 83.7263 111.418 84.228C110.848 84.7256 110.09 84.9744 109.142 84.9744C108.115 84.9744 107.291 84.6062 106.67 83.8697C106.053 83.1331 105.745 82.1478 105.745 80.9137V80.0776C105.745 79.2695 105.888 78.5588 106.175 77.9457C106.465 77.3327 106.875 76.8629 107.405 76.5364C107.934 76.206 108.547 76.0408 109.244 76.0408C110.168 76.0408 110.908 76.2996 111.465 76.8171C112.023 77.3307 112.347 78.0433 112.439 78.955H111.286C111.187 78.2622 110.97 77.7606 110.635 77.4501C110.305 77.1396 109.841 76.9843 109.244 76.9843C108.511 76.9843 107.936 77.255 107.518 77.7965C107.104 78.3379 106.897 79.1082 106.897 80.1075V80.9495C106.897 81.893 107.094 82.6435 107.488 83.2008C107.882 83.7582 108.434 84.0369 109.142 84.0369C109.779 84.0369 110.267 83.8935 110.606 83.6069C110.948 83.3163 111.175 82.8127 111.286 82.0961H112.439ZM120.814 84.855H119.661L115.284 78.1548V84.855H114.132V76.1602H115.284L119.673 82.8903V76.1602H120.814V84.855ZM129.661 80.7883C129.661 81.6402 129.518 82.3847 129.231 83.0217C128.944 83.6547 128.538 84.1384 128.013 84.4728C127.487 84.8072 126.874 84.9744 126.173 84.9744C125.489 84.9744 124.882 84.8072 124.352 84.4728C123.823 84.1344 123.411 83.6547 123.116 83.0336C122.825 82.4086 122.676 81.686 122.668 80.8659V80.2389C122.668 79.4028 122.813 78.6643 123.104 78.0234C123.395 77.3824 123.805 76.8927 124.334 76.5543C124.868 76.212 125.477 76.0408 126.162 76.0408C126.858 76.0408 127.471 76.21 128.001 76.5484C128.534 76.8828 128.944 77.3705 129.231 78.0114C129.518 78.6484 129.661 79.3909 129.661 80.2389V80.7883ZM128.52 80.2269C128.52 79.1958 128.313 78.4056 127.899 77.8562C127.485 77.3028 126.906 77.0261 126.162 77.0261C125.437 77.0261 124.866 77.3028 124.448 77.8562C124.034 78.4056 123.821 79.1699 123.809 80.1493V80.7883C123.809 81.7875 124.018 82.5738 124.436 83.1471C124.858 83.7164 125.437 84.001 126.173 84.001C126.914 84.001 127.487 83.7323 127.893 83.1949C128.299 82.6534 128.508 81.8791 128.52 80.8719V80.2269ZM132.656 83.9174H136.776V84.855H131.503V76.1602H132.656V83.9174ZM144.5 80.7883C144.5 81.6402 144.357 82.3847 144.07 83.0217C143.784 83.6547 143.378 84.1384 142.852 84.4728C142.327 84.8072 141.714 84.9744 141.013 84.9744C140.328 84.9744 139.721 84.8072 139.192 84.4728C138.662 84.1344 138.25 83.6547 137.955 83.0336C137.665 82.4086 137.515 81.686 137.507 80.8659V80.2389C137.507 79.4028 137.653 78.6643 137.943 78.0234C138.234 77.3824 138.644 76.8927 139.174 76.5543C139.707 76.212 140.316 76.0408 141.001 76.0408C141.698 76.0408 142.311 76.21 142.84 76.5484C143.374 76.8828 143.784 77.3705 144.07 78.0114C144.357 78.6484 144.5 79.3909 144.5 80.2389V80.7883ZM143.36 80.2269C143.36 79.1958 143.153 78.4056 142.739 77.8562C142.325 77.3028 141.745 77.0261 141.001 77.0261C140.276 77.0261 139.705 77.3028 139.287 77.8562C138.873 78.4056 138.66 79.1699 138.648 80.1493V80.7883C138.648 81.7875 138.857 82.5738 139.275 83.1471C139.697 83.7164 140.276 84.001 141.013 84.001C141.753 84.001 142.327 83.7323 142.733 83.1949C143.139 82.6534 143.348 81.8791 143.36 80.8719V80.2269ZM141.562 73.8193H142.9L141.3 75.575H140.41L141.562 73.8193ZM152.762 83.7144C152.467 84.1364 152.055 84.4529 151.526 84.6639C151 84.8709 150.387 84.9744 149.687 84.9744C148.978 84.9744 148.349 84.8092 147.8 84.4788C147.25 84.1444 146.824 83.6706 146.522 83.0575C146.223 82.4444 146.07 81.7338 146.062 80.9256V80.1672C146.062 78.8574 146.366 77.8422 146.975 77.1217C147.589 76.4011 148.448 76.0408 149.555 76.0408C150.463 76.0408 151.193 76.2737 151.747 76.7395C152.3 77.2013 152.639 77.8582 152.762 78.7101H151.615C151.4 77.5596 150.716 76.9843 149.561 76.9843C148.793 76.9843 148.21 77.255 147.812 77.7965C147.417 78.3339 147.218 79.1142 147.214 80.1374V80.848C147.214 81.8234 147.437 82.5997 147.883 83.1769C148.329 83.7502 148.932 84.0369 149.693 84.0369C150.123 84.0369 150.499 83.9891 150.821 83.8935C151.144 83.798 151.41 83.6368 151.621 83.4098V81.4571H149.609V80.5255H152.762V83.7144ZM156.031 84.855H154.885V76.1602H156.031V84.855ZM164.651 82.0961C164.544 83.0157 164.204 83.7263 163.63 84.228C163.061 84.7256 162.303 84.9744 161.355 84.9744C160.328 84.9744 159.504 84.6062 158.883 83.8697C158.266 83.1331 157.957 82.1478 157.957 80.9137V80.0776C157.957 79.2695 158.1 78.5588 158.387 77.9457C158.678 77.3327 159.088 76.8629 159.617 76.5364C160.147 76.206 160.76 76.0408 161.457 76.0408C162.38 76.0408 163.121 76.2996 163.678 76.8171C164.235 77.3307 164.56 78.0433 164.651 78.955H163.499C163.399 78.2622 163.182 77.7606 162.848 77.4501C162.518 77.1396 162.054 76.9843 161.457 76.9843C160.724 76.9843 160.149 77.255 159.731 77.7965C159.317 78.3379 159.11 79.1082 159.11 80.1075V80.9495C159.11 81.893 159.307 82.6435 159.701 83.2008C160.095 83.7582 160.646 84.0369 161.355 84.0369C161.992 84.0369 162.48 83.8935 162.818 83.6069C163.16 83.3163 163.387 82.8127 163.499 82.0961H164.651ZM171.145 82.5857H167.503L166.685 84.855H165.502L168.823 76.1602H169.826L173.152 84.855H171.976L171.145 82.5857ZM167.849 81.6422H170.805L169.324 77.5755L167.849 81.6422Z" fill="white"/>
<path d="M45.2862 50.9854C44.4036 50.9842 43.5367 50.7496 42.7714 50.305L28.4191 42.059C27.639 41.6102 26.9897 40.9613 26.537 40.1778C26.0842 39.3942 25.8439 38.5038 25.8404 37.5964C25.8368 36.689 26.0702 35.7967 26.5168 35.0096C26.9634 34.2225 27.6076 33.5684 28.3842 33.1134L42.7365 24.7134C43.5068 24.2564 44.3835 24.0149 45.2767 24.0137C45.9481 24.0133 46.6129 24.1465 47.2333 24.4058C47.8537 24.6651 48.4175 25.0454 48.8925 25.525C49.3675 26.0046 49.7444 26.574 50.0017 27.2008C50.259 27.8277 50.3917 28.4996 50.3921 29.1782V45.8209C50.3913 47.1898 49.8531 48.5025 48.8959 49.4707C47.9386 50.439 46.6404 50.9837 45.2862 50.9854ZM45.2862 26.6521C44.8502 26.6537 44.4226 26.7734 44.0479 26.9988L29.6956 35.3956C29.3157 35.6164 29.0001 35.9346 28.7806 36.3181C28.5612 36.7016 28.4456 37.1368 28.4456 37.5798C28.4456 38.0228 28.5612 38.458 28.7806 38.8415C29.0001 39.225 29.3157 39.5432 29.6956 39.7641L44.0479 48.01C44.4215 48.2239 44.8442 48.3346 45.2735 48.331C45.9355 48.3293 46.5698 48.0625 47.0376 47.589C47.5054 47.1156 47.7685 46.474 47.7693 45.8049V29.1782C47.7677 28.511 47.5056 27.8714 47.04 27.3984C46.5745 26.9254 45.9431 26.6572 45.2831 26.6521H45.2862Z" fill="white"/>
<path d="M35.9574 50.9854C34.6032 50.9837 33.305 50.439 32.3478 49.4707C31.3905 48.5025 30.8524 47.1898 30.8516 45.8209V29.1782C30.8524 27.8087 31.3909 26.4956 32.3489 25.5273C33.3068 24.5589 34.6059 24.0145 35.9606 24.0137C36.8538 24.0149 37.7305 24.2564 38.5008 24.7134L52.8531 33.1134C53.6306 33.5678 54.2755 34.2216 54.7228 35.0088C55.17 35.796 55.4037 36.6887 55.4001 37.5965C55.3966 38.5042 55.156 39.395 54.7026 40.1786C54.2492 40.9622 53.5992 41.6109 52.8182 42.059L38.4659 50.305C37.7025 50.7485 36.8379 50.983 35.9574 50.9854ZM35.9574 26.6521C35.2952 26.6538 34.6605 26.9205 34.1922 27.3939C33.724 27.8672 33.4601 28.5088 33.4585 29.1782V45.8209C33.4593 46.4901 33.7224 47.1316 34.1902 47.6051C34.658 48.0785 35.2923 48.3453 35.9542 48.347C36.3836 48.3507 36.8063 48.24 37.1799 48.026L51.5322 39.7801C51.9129 39.5599 52.2293 39.2419 52.4494 38.8584C52.6695 38.4748 52.7854 38.0393 52.7854 37.5959C52.7854 37.1524 52.6695 36.7169 52.4494 36.3333C52.2293 35.9498 51.9129 35.6318 51.5322 35.4116L37.199 26.9988C36.8242 26.7734 36.3966 26.6537 35.9606 26.6521H35.9574Z" fill="white"/>
<path d="M57.9205 73.9999C56.7313 73.9946 55.5651 73.6688 54.542 73.0562L53.1671 72.2377L3.3151 43.6065C2.30047 43.013 1.45808 42.1603 0.872439 41.1338C0.286801 40.1073 -0.0214844 38.9432 -0.0214844 37.7582C-0.0214844 36.5733 0.286801 35.4092 0.872439 34.3827C1.45808 33.3562 2.30047 32.5035 3.3151 31.91L53.1131 2.78771L54.5547 1.93391C55.5694 1.32803 56.7248 1.00483 57.9033 0.997208C59.0817 0.989588 60.2412 1.29783 61.2635 1.89053C62.2857 2.48323 63.1344 3.33922 63.7229 4.37133C64.3115 5.40344 64.6189 6.57478 64.614 7.76607V67.2337C64.6114 69.0274 63.9054 70.7469 62.6507 72.0153C61.396 73.2836 59.6949 73.9973 57.9205 73.9999ZM57.9205 3.88866C57.2414 3.89066 56.5755 4.07808 55.9931 4.43111L54.5515 5.28492L4.76303 34.4072C4.17854 34.7463 3.69291 35.2353 3.3552 35.8248C3.01749 36.4143 2.83965 37.0835 2.83965 37.7647C2.83965 38.4459 3.01749 39.115 3.3552 39.7045C3.69291 40.2941 4.17854 40.783 4.76303 41.1221L54.615 69.7662L55.9835 70.5782C56.5673 70.9338 57.2357 71.1224 57.9173 71.1239C58.9355 71.1214 59.9113 70.7113 60.6313 69.9835C61.3513 69.2557 61.7569 68.2693 61.7594 67.2401V7.79175C61.7586 6.76073 61.3545 5.77184 60.6354 5.04069C59.9163 4.30954 58.9404 3.89544 57.9205 3.88866Z" fill="white"/>
<path d="M23.3224 74.0001C21.5482 73.9976 19.8475 73.2838 18.5933 72.0153C17.3391 70.7469 16.6338 69.0273 16.6321 67.2339V7.76633C16.6272 6.57415 16.9352 5.40199 17.5247 4.36941C18.1142 3.33683 18.9641 2.48077 19.9877 1.88854C21.0113 1.29631 22.1719 0.989104 23.3512 0.998245C24.5306 1.00739 25.6864 1.33255 26.7009 1.94058L28.079 2.76228L77.9309 31.3935C78.9489 31.9839 79.7946 32.8354 80.3828 33.8619C80.971 34.8885 81.2807 36.0538 81.2807 37.2401C81.2807 38.4264 80.971 39.5917 80.3828 40.6183C79.7946 41.6449 78.9489 42.4964 77.9309 43.0867L28.1298 72.2091L26.6882 73.0629C25.6685 73.6719 24.5068 73.9954 23.3224 74.0001ZM23.3256 3.88892C22.3079 3.8906 21.3323 4.29935 20.6118 5.02587C19.8913 5.75238 19.4845 6.73761 19.4803 7.76633V67.205C19.4786 68.2383 19.8819 69.2301 20.602 69.9634C21.3221 70.6967 22.3003 71.1118 23.3224 71.1177C24.0009 71.1147 24.6663 70.9285 25.2498 70.5785L26.6914 69.7247L76.4735 40.5927C77.0565 40.2532 77.5407 39.7645 77.8774 39.1756C78.2141 38.5868 78.3913 37.9186 78.3913 37.2385C78.3913 36.5584 78.2141 35.8903 77.8774 35.3014C77.5407 34.7126 77.0565 34.2238 76.4735 33.8843L26.6215 5.24023L25.2498 4.42495C24.6673 4.07574 24.0028 3.89065 23.3256 3.88892Z" fill="white"/>
<path d="M40.6213 71.7017C33.9263 71.7056 27.3807 69.7017 21.8129 65.9437C16.245 62.1856 11.9052 56.8423 9.34264 50.5901C6.78008 44.3378 6.10998 37.4576 7.41716 30.8201C8.72434 24.1827 11.95 18.0865 16.686 13.303C23.0508 6.96597 31.6358 3.4292 40.5694 3.46363C49.503 3.49806 58.061 7.10091 64.3779 13.4868C70.6947 19.8727 74.2583 28.5239 74.2918 37.5546C74.3252 46.5853 70.8259 55.2633 64.5566 61.6968C61.4195 64.8814 57.6888 67.4055 53.5803 69.1228C49.4718 70.8401 45.0671 71.7167 40.6213 71.7017ZM40.6213 10.074C34.3418 10.0779 28.2579 12.2827 23.4062 16.3127C18.5546 20.3427 15.2353 25.9485 14.0141 32.175C12.7928 38.4015 13.745 44.8635 16.7086 50.4598C19.6721 56.0562 24.4636 60.4407 30.2665 62.8662C36.0695 65.2918 42.525 65.6084 48.533 63.762C54.541 61.9157 59.7298 58.0206 63.2153 52.7406C66.7008 47.4605 68.2674 41.1221 67.6481 34.8053C67.0288 28.4885 64.262 22.5842 59.819 18.0984C57.304 15.542 54.3121 13.5155 51.0167 12.1364C47.7213 10.7573 44.1879 10.053 40.6213 10.0643V10.074Z" fill="white"/>
</g>
<defs>
<clipPath id="clip0">
<rect width="222" height="73" fill="white"/>
</clipPath>
</defs>
</svg>
